<svg width="300" height="300" xmlns="http://www.w3.org/2000/svg" data-name="ka"><defs><style>.cls-1{fill:#036eb8;}.cls-2{fill:#00a0e9;}</style></defs><title>ka</title><path class="cls-1" d="m46.92971,246.49994l-5.78,0a15.66,15.66 0 0 1 -15.07,-19.9l46.32,-164.61a11.64,11.64 0 0 1 11.2,-8.49l21.82,0a11.65,11.65 0 0 1 11.21,14.79l-44.83,159.37a25.85,25.85 0 0 1 -24.87,18.84z"/><path class="cls-2" d="m54.64971,245.49994l-14.5,0a9,9 0 0 1 -6.83,-14.91l150,-174a11.67,11.67 0 0 1 8.82,-4l15.27,0a11.64,11.64 0 0 1 8.82,19.24l-142,164.79a25.84,25.84 0 0 1 -19.58,8.88z"/><path class="cls-1" d="m215.41971,98.07994l-16.11,18.7a11.61,11.61 0 0 0 -2.34,10.93l33,110.52a11.65,11.65 0 0 0 11.18,8.27l21.71,0a11.64,11.64 0 0 0 11.15,-15l-38.62,-129.2a11.64,11.64 0 0 0 -19.97,-4.22z"/><path class="cls-2" d="m199.64971,231.07994l-18.13,-60.66a11.64,11.64 0 0 0 -20,-4.26l-16.11,18.7a11.65,11.65 0 0 0 -2.26,10.88l12.55,41.95a11.64,11.64 0 0 0 11.15,8.31l21.7,0a11.63,11.63 0 0 0 11.1,-14.92z"/></svg>